<svg width="67" height="25" viewBox="0 0 67 25" fill="none" xmlns="http://www.w3.org/2000/svg">
<g filter="url(#filter0_d_143_129)">
<rect width="67" height="25" rx="2" fill="url(#paint0_linear_143_129)"/>
</g>
<path opacity="0.8" d="M12.19 9.146C13.1433 9.146 13.8437 9.35867 14.291 9.784C14.7383 10.2093 14.962 10.796 14.962 11.544C14.962 11.8813 14.9143 12.204 14.819 12.512C14.7237 12.8127 14.5623 13.084 14.335 13.326C14.115 13.568 13.8217 13.7587 13.455 13.898C13.0883 14.0373 12.6373 14.107 12.102 14.107H11.398V17H9.924V9.146H12.19ZM12.135 10.312H11.398V12.941H11.948C12.2707 12.941 12.5457 12.897 12.773 12.809C13.0003 12.7137 13.1727 12.567 13.29 12.369C13.4147 12.171 13.477 11.9143 13.477 11.599C13.477 11.1663 13.367 10.8437 13.147 10.631C12.927 10.4183 12.5897 10.312 12.135 10.312ZM18.5476 9.146C19.2002 9.146 19.7392 9.23033 20.1646 9.399C20.5899 9.56767 20.9052 9.82433 21.1106 10.169C21.3159 10.5063 21.4186 10.9353 21.4186 11.456C21.4186 11.8373 21.3562 12.1637 21.2316 12.435C21.1069 12.7063 20.9382 12.9337 20.7256 13.117C20.5202 13.293 20.2966 13.436 20.0546 13.546L22.1666 17H20.4946L18.7896 13.898H17.8326V17H16.3586V9.146H18.5476ZM18.4816 10.323H17.8326V12.743H18.5036C18.8189 12.743 19.0792 12.6953 19.2846 12.6C19.4972 12.5047 19.6549 12.3653 19.7576 12.182C19.8676 11.9987 19.9226 11.7713 19.9226 11.5C19.9226 11.214 19.8712 10.9867 19.7686 10.818C19.6659 10.642 19.5082 10.5173 19.2956 10.444C19.0829 10.3633 18.8116 10.323 18.4816 10.323ZM27.3397 17H23.1047V9.146H27.3397V10.323H24.5787V12.325H27.1637V13.502H24.5787V15.812H27.3397V17ZM34.6157 9.146L32.0857 17H30.4467L27.9277 9.146H29.5007L30.8757 13.953C30.9124 14.085 30.9564 14.2573 31.0077 14.47C31.0664 14.6753 31.1177 14.888 31.1617 15.108C31.2131 15.3207 31.2497 15.5113 31.2717 15.68C31.2937 15.5113 31.3267 15.3207 31.3707 15.108C31.4221 14.8953 31.4734 14.6827 31.5247 14.47C31.5761 14.2573 31.6237 14.085 31.6677 13.953L33.0317 9.146H34.6157Z" fill="#FAFAFA"/>
<rect x="43" y="10" width="15" height="5" rx="2.5" fill="#444444"/>
<defs>
<filter id="filter0_d_143_129" x="-1" y="0" width="69" height="27" filterUnits="userSpaceOnUse" color-interpolation-filters="sRGB">
<feFlood flood-opacity="0" result="BackgroundImageFix"/>
<feColorMatrix in="SourceAlpha" type="matrix" values="0 0 0 0 0 0 0 0 0 0 0 0 0 0 0 0 0 0 127 0" result="hardAlpha"/>
<feOffset dy="1"/>
<feGaussianBlur stdDeviation="0.5"/>
<feComposite in2="hardAlpha" operator="out"/>
<feColorMatrix type="matrix" values="0 0 0 0 0 0 0 0 0 0 0 0 0 0 0 0 0 0 0.5 0"/>
<feBlend mode="normal" in2="BackgroundImageFix" result="effect1_dropShadow_143_129"/>
<feBlend mode="normal" in="SourceGraphic" in2="effect1_dropShadow_143_129" result="shape"/>
</filter>
<linearGradient id="paint0_linear_143_129" x1="60.1533" y1="-12.1429" x2="54.7414" y2="23.9728" gradientUnits="userSpaceOnUse">
<stop stop-color="#636363"/>
<stop offset="1" stop-color="#5A5A5A"/>
</linearGradient>
</defs>
</svg>
