<svg width="380" height="380" viewBox="0 0 380 380" fill="none" xmlns="http://www.w3.org/2000/svg">
<g clip-path="url(#clip0_138_59)">
<mask id="mask0_138_59" style="mask-type:alpha" maskUnits="userSpaceOnUse" x="0" y="0" width="380" height="380">
<circle cx="190" cy="190" r="190" fill="#D9D9D9" style="fill:#D9D9D9;fill:color(display-p3 0.8510 0.8510 0.8510);fill-opacity:1;"/>
</mask>
<g mask="url(#mask0_138_59)">
<path d="M269.891 90.1359L269.213 91.6279C269.181 91.6593 269.154 91.6957 269.133 91.7358C269.116 91.7695 269.106 91.8068 269.106 91.8448C269.106 91.9164 269.133 91.9706 269.187 92.0069C269.242 92.0433 269.304 92.0796 269.377 92.1159C269.412 92.1159 269.439 92.1252 269.457 92.1431C269.476 92.1604 269.503 92.1691 269.539 92.1691H269.647C269.72 92.1691 269.765 92.142 269.784 92.0877C269.802 92.0335 269.829 91.9711 269.864 91.8996L270.352 90.8963L270.596 90.394L272.873 91.1663L271.925 93.2001C271.708 93.6339 271.436 93.9501 271.111 94.1492C270.785 94.3486 270.409 94.4522 270.027 94.448C269.954 94.4479 269.881 94.4388 269.81 94.4209C269.738 94.403 269.665 94.3937 269.594 94.3937C269.525 94.3587 269.452 94.3312 269.377 94.3119C269.302 94.2928 269.23 94.2659 269.161 94.2316C268.799 94.0857 268.51 93.8503 268.293 93.5255C268.076 93.2001 267.968 92.8205 267.968 92.3861C267.968 92.2412 267.986 92.0877 268.022 91.925C268.058 91.7624 268.112 91.591 268.184 91.4109L268.942 89.8919L269.891 90.1359Z" fill="black" fill-opacity="0.988" style="fill:black;fill-opacity:0.988;"/>
<path d="M269.891 90.1359L269.213 91.6279C269.181 91.6593 269.154 91.6957 269.133 91.7358C269.116 91.7695 269.106 91.8068 269.106 91.8448C269.106 91.9164 269.133 91.9706 269.187 92.0069C269.242 92.0433 269.304 92.0796 269.377 92.1159C269.412 92.1159 269.439 92.1252 269.457 92.1431C269.476 92.1604 269.503 92.1691 269.539 92.1691H269.647C269.72 92.1691 269.765 92.142 269.784 92.0877C269.802 92.0335 269.829 91.9711 269.864 91.8996L270.352 90.8963L270.596 90.394L272.873 91.1663L271.925 93.2001C271.708 93.6339 271.436 93.9501 271.111 94.1492C270.785 94.3486 270.409 94.4522 270.027 94.448C269.954 94.4479 269.881 94.4388 269.81 94.4209C269.738 94.403 269.665 94.3937 269.594 94.3937C269.525 94.3587 269.452 94.3312 269.377 94.3119C269.302 94.2928 269.23 94.2659 269.161 94.2316C268.799 94.0857 268.51 93.8503 268.293 93.5255C268.076 93.2001 267.968 92.8205 267.968 92.3861C267.968 92.2412 267.986 92.0877 268.022 91.925C268.058 91.7624 268.112 91.591 268.184 91.4109L268.942 89.8919L269.891 90.1359Z" fill="black" fill-opacity="0.988" style="fill:black;fill-opacity:0.988;"/>
<path d="M269.678 90.6052L270.41 89.1387C270.415 89.0888 270.426 89.0454 270.442 89.0085C270.459 88.9717 270.482 88.9413 270.51 88.9185C270.533 88.8971 270.562 88.8823 270.593 88.8754C270.624 88.8686 270.657 88.87 270.687 88.8795C270.749 88.8985 270.817 88.9245 270.892 88.9581C270.914 88.9852 270.938 89.001 270.963 89.0037C270.988 89.0069 271.012 89.0226 271.035 89.0508L271.052 89.072L271.103 89.1344C271.148 89.1908 271.156 89.2428 271.126 89.2916C271.09 89.3499 271.058 89.4104 271.03 89.4728L270.558 90.4842L270.323 90.9897L272.357 92.2728L273.338 90.2543C273.538 89.8123 273.613 89.4023 273.562 89.0237C273.512 88.6449 273.355 88.288 273.111 87.9939C273.065 87.9369 273.012 87.8859 272.953 87.842C272.893 87.7975 272.841 87.7471 272.796 87.6918C272.725 87.6599 272.658 87.6204 272.595 87.5741C272.536 87.5296 272.47 87.4905 272.397 87.4569C272.064 87.2693 271.682 87.1892 271.302 87.2275C270.913 87.2644 270.551 87.4195 270.213 87.6934C270.093 87.792 269.985 87.9033 269.889 88.0253C269.778 88.1668 269.679 88.3174 269.593 88.4754L268.891 90.0216L269.678 90.6052Z" fill="black" fill-opacity="0.988" style="fill:black;fill-opacity:0.988;"/>
<path d="M269.678 90.6052L270.41 89.1387C270.415 89.0888 270.426 89.0454 270.442 89.0085C270.459 88.9717 270.482 88.9413 270.51 88.9185C270.533 88.8971 270.562 88.8823 270.593 88.8754C270.624 88.8686 270.657 88.87 270.687 88.8795C270.749 88.8985 270.817 88.9245 270.892 88.9581C270.914 88.9852 270.938 89.001 270.963 89.0037C270.988 89.0069 271.012 89.0226 271.035 89.0508L271.052 89.072L271.103 89.1344C271.148 89.1908 271.156 89.2428 271.126 89.2916C271.09 89.3499 271.058 89.4104 271.03 89.4728L270.558 90.4842L270.323 90.9897L272.357 92.2728L273.338 90.2543C273.538 89.8123 273.613 89.4023 273.562 89.0237C273.512 88.6449 273.355 88.288 273.111 87.9939C273.065 87.9369 273.012 87.8859 272.953 87.842C272.893 87.7975 272.841 87.7471 272.796 87.6918C272.725 87.6599 272.658 87.6204 272.595 87.5741C272.536 87.5296 272.47 87.4905 272.397 87.4569C272.064 87.2693 271.682 87.1892 271.302 87.2275C270.913 87.2644 270.551 87.4195 270.213 87.6934C270.093 87.792 269.985 87.9033 269.889 88.0253C269.778 88.1668 269.679 88.3174 269.593 88.4754L268.891 90.0216L269.678 90.6052Z" fill="black" fill-opacity="0.988" style="fill:black;fill-opacity:0.988;"/>
<path d="M378.701 189.766C378.701 85.6342 294.323 1.22158 190.239 1.22158C86.1554 1.22158 1.77698 85.6342 1.77698 189.766C1.77698 293.899 86.1554 378.311 190.239 378.311C294.323 378.311 378.701 293.899 378.701 189.766Z" fill="black" stroke="black" stroke-opacity="0.85" style="fill:black;fill-opacity:1;stroke:black;stroke-opacity:0.85;" stroke-width="4.68563" stroke-linecap="round"/>
<path d="M376.431 189.765C376.431 86.8846 293.067 3.48669 190.235 3.48669C87.4037 3.48669 4.04028 86.8846 4.04028 189.765C4.04028 292.646 87.4037 376.044 190.235 376.044C293.067 376.044 376.431 292.646 376.431 189.765Z" fill="black" stroke="white" stroke-opacity="0.123" style="fill:black;fill-opacity:1;stroke:white;stroke-opacity:0.123;" stroke-width="3.04885" stroke-linecap="round"/>
<path d="M373.73 189.767C373.73 88.3772 291.575 6.1878 190.233 6.1878C88.892 6.1878 6.73682 88.3772 6.73682 189.767C6.73682 291.156 88.892 373.346 190.233 373.346C291.575 373.346 373.73 291.156 373.73 189.767Z" fill="black" stroke="white" stroke-opacity="0.123" style="fill:black;fill-opacity:1;stroke:white;stroke-opacity:0.123;" stroke-width="3.00466" stroke-linecap="round"/>
<path d="M371.034 189.77C371.034 89.8728 290.088 8.893 190.237 8.893C90.3858 8.893 9.43884 89.8728 9.43884 189.77C9.43884 289.668 90.3858 370.648 190.237 370.648C290.088 370.648 371.034 289.668 371.034 189.77Z" fill="black" stroke="white" stroke-opacity="0.123" style="fill:black;fill-opacity:1;stroke:white;stroke-opacity:0.123;" stroke-width="2.96046" stroke-linecap="round"/>
<path d="M368.334 189.767C368.334 91.36 288.595 11.5888 190.235 11.5888C91.8742 11.5888 12.1355 91.36 12.1355 189.767C12.1355 288.173 91.8742 367.944 190.235 367.944C288.595 367.944 368.334 288.173 368.334 189.767Z" fill="black" stroke="white" stroke-opacity="0.123" style="fill:black;fill-opacity:1;stroke:white;stroke-opacity:0.123;" stroke-width="2.91627" stroke-linecap="round"/>
<path d="M365.633 189.768C365.633 92.8526 287.102 14.2899 190.232 14.2899C93.3625 14.2899 14.832 92.8526 14.832 189.768C14.832 286.684 93.3625 365.247 190.232 365.247C287.102 365.247 365.633 286.684 365.633 189.768Z" fill="black" stroke="white" stroke-opacity="0.123" style="fill:black;fill-opacity:1;stroke:white;stroke-opacity:0.123;" stroke-width="2.87209" stroke-linecap="round"/>
<path d="M362.932 189.77C362.932 94.3451 285.61 16.991 190.23 16.991C94.8507 16.991 17.5286 94.3451 17.5286 189.77C17.5286 285.195 94.8507 362.549 190.23 362.549C285.61 362.549 362.932 285.195 362.932 189.77Z" fill="black" stroke="white" stroke-opacity="0.123" style="fill:black;fill-opacity:1;stroke:white;stroke-opacity:0.123;" stroke-width="2.8279" stroke-linecap="round"/>
<path d="M360.237 189.766C360.237 95.8321 284.123 19.6867 190.234 19.6867C96.3445 19.6867 20.2306 95.8321 20.2306 189.766C20.2306 283.7 96.3445 359.845 190.234 359.845C284.123 359.845 360.237 283.7 360.237 189.766Z" fill="black" stroke="white" stroke-opacity="0.123" style="fill:black;fill-opacity:1;stroke:white;stroke-opacity:0.123;" stroke-width="2.78371" stroke-linecap="round"/>
<path d="M357.536 189.768C357.536 97.3249 282.63 22.3881 190.232 22.3881C97.8329 22.3881 22.9272 97.3249 22.9272 189.768C22.9272 282.211 97.8329 357.147 190.232 357.147C282.63 357.147 357.536 282.211 357.536 189.768Z" fill="black" stroke="white" stroke-opacity="0.123" style="fill:black;fill-opacity:1;stroke:white;stroke-opacity:0.123;" stroke-width="2.73953" stroke-linecap="round"/>
<path d="M354.841 189.769C354.841 98.8175 281.143 25.0892 190.233 25.0892C99.324 25.0892 25.6257 98.8175 25.6257 189.769C25.6257 280.721 99.324 354.449 190.233 354.449C281.143 354.449 354.841 280.721 354.841 189.769Z" fill="black" stroke="white" stroke-opacity="0.123" style="fill:black;fill-opacity:1;stroke:white;stroke-opacity:0.123;" stroke-width="2.69536" stroke-linecap="round"/>
<path d="M349.445 189.767C349.445 101.797 278.163 30.4861 190.235 30.4861C102.306 30.4861 31.0243 101.797 31.0243 189.767C31.0243 277.737 102.306 349.048 190.235 349.048C278.163 349.048 349.445 277.737 349.445 189.767Z" fill="black" stroke="white" stroke-opacity="0.123" style="fill:black;fill-opacity:1;stroke:white;stroke-opacity:0.123;" stroke-width="2.60698" stroke-linecap="round"/>
<path d="M346.744 189.769C346.744 103.29 276.671 33.1871 190.233 33.1871C103.794 33.1871 33.7209 103.29 33.7209 189.769C33.7209 276.248 103.794 346.35 190.233 346.35C276.671 346.35 346.744 276.248 346.744 189.769Z" fill="black" stroke="white" stroke-opacity="0.123" style="fill:black;fill-opacity:1;stroke:white;stroke-opacity:0.123;" stroke-width="2.5628" stroke-linecap="round"/>
<path d="M344.043 189.765C344.043 104.777 275.178 35.8829 190.23 35.8829C105.283 35.8829 36.4175 104.777 36.4175 189.765C36.4175 274.753 105.283 343.647 190.23 343.647C275.178 343.647 344.043 274.753 344.043 189.765Z" fill="black" stroke="white" stroke-opacity="0.123" style="fill:black;fill-opacity:1;stroke:white;stroke-opacity:0.123;" stroke-width="2.51861" stroke-linecap="round"/>
<path d="M341.343 189.766C341.343 106.269 273.686 38.584 190.228 38.584C106.771 38.584 39.114 106.269 39.114 189.766C39.114 273.264 106.771 340.949 190.228 340.949C273.686 340.949 341.343 273.264 341.343 189.766Z" fill="black" stroke="white" stroke-opacity="0.123" style="fill:black;fill-opacity:1;stroke:white;stroke-opacity:0.123;" stroke-width="2.47442" stroke-linecap="round"/>
<path d="M338.647 189.768C338.647 107.762 272.199 41.2853 190.232 41.2853C108.265 41.2853 41.816 107.762 41.816 189.768C41.816 271.774 108.265 338.251 190.232 338.251C272.199 338.251 338.647 271.774 338.647 189.768Z" fill="black" stroke="white" stroke-opacity="0.123" style="fill:black;fill-opacity:1;stroke:white;stroke-opacity:0.123;" stroke-width="2.43024" stroke-linecap="round"/>
<path d="M335.947 189.764C335.947 109.249 270.706 43.9811 190.23 43.9811C109.753 43.9811 44.5127 109.249 44.5127 189.764C44.5127 270.28 109.753 335.548 190.23 335.548C270.706 335.548 335.947 270.28 335.947 189.764Z" fill="black" stroke="white" stroke-opacity="0.123" style="fill:black;fill-opacity:1;stroke:white;stroke-opacity:0.123;" stroke-width="2.38605" stroke-linecap="round"/>
<path d="M333.246 189.766C333.246 110.742 269.214 46.6822 190.227 46.6822C111.241 46.6822 47.2092 110.742 47.2092 189.766C47.2092 268.79 111.241 332.85 190.227 332.85C269.214 332.85 333.246 268.79 333.246 189.766Z" fill="black" stroke="white" stroke-opacity="0.123" style="fill:black;fill-opacity:1;stroke:white;stroke-opacity:0.123;" stroke-width="2.34186" stroke-linecap="round"/>
<path d="M327.855 189.766C327.855 113.724 266.239 52.083 190.233 52.083C114.226 52.083 52.6097 113.724 52.6097 189.766C52.6097 265.807 114.226 327.448 190.233 327.448C266.239 327.448 327.855 265.807 327.855 189.766Z" fill="black" stroke="white" stroke-opacity="0.123" style="fill:black;fill-opacity:1;stroke:white;stroke-opacity:0.123;" stroke-width="2.25349" stroke-linecap="round"/>
<path d="M325.155 189.767C325.155 115.217 264.746 54.7842 190.23 54.7842C115.715 54.7842 55.3063 115.217 55.3063 189.767C55.3063 264.318 115.715 324.75 190.23 324.75C264.746 324.75 325.155 264.318 325.155 189.767Z" fill="black" stroke="white" stroke-opacity="0.123" style="fill:black;fill-opacity:1;stroke:white;stroke-opacity:0.123;" stroke-width="2.2093" stroke-linecap="round"/>
<path d="M322.454 189.769C322.454 116.71 263.254 57.4854 190.228 57.4854C117.203 57.4854 58.0029 116.71 58.0029 189.769C58.0029 262.828 117.203 322.053 190.228 322.053C263.254 322.053 322.454 262.828 322.454 189.769Z" fill="black" stroke="white" stroke-opacity="0.123" style="fill:black;fill-opacity:1;stroke:white;stroke-opacity:0.123;" stroke-width="2.16511" stroke-linecap="round"/>
<path d="M319.753 189.765C319.753 118.197 261.761 60.1811 190.226 60.1811C118.691 60.1811 60.6995 118.197 60.6995 189.765C60.6995 261.334 118.691 319.349 190.226 319.349C261.761 319.349 319.753 261.334 319.753 189.765Z" fill="black" stroke="white" stroke-opacity="0.123" style="fill:black;fill-opacity:1;stroke:white;stroke-opacity:0.123;" stroke-width="2.12093" stroke-linecap="round"/>
<path d="M317.058 189.767C317.058 119.689 260.274 62.8823 190.23 62.8823C120.185 62.8823 63.4015 119.689 63.4015 189.767C63.4015 259.844 120.185 316.651 190.23 316.651C260.274 316.651 317.058 259.844 317.058 189.767Z" fill="black" stroke="white" stroke-opacity="0.123" style="fill:black;fill-opacity:1;stroke:white;stroke-opacity:0.123;" stroke-width="2.07674" stroke-linecap="round"/>
<path d="M314.357 189.769C314.357 121.182 258.782 65.5835 190.228 65.5835C121.673 65.5835 66.0981 121.182 66.0981 189.769C66.0981 258.355 121.673 313.953 190.228 313.953C258.782 313.953 314.357 258.355 314.357 189.769Z" fill="black" stroke="white" stroke-opacity="0.123" style="fill:black;fill-opacity:1;stroke:white;stroke-opacity:0.123;" stroke-width="2.03256" stroke-linecap="round"/>
<path d="M311.656 189.765C311.656 122.669 257.289 68.2792 190.225 68.2792C123.162 68.2792 68.7947 122.669 68.7947 189.765C68.7947 256.86 123.162 311.25 190.225 311.25C257.289 311.25 311.656 256.86 311.656 189.765Z" fill="black" stroke="white" stroke-opacity="0.123" style="fill:black;fill-opacity:1;stroke:white;stroke-opacity:0.123;" stroke-width="1.98837" stroke-linecap="round"/>
<path d="M308.955 189.766C308.955 124.162 255.797 70.9804 190.223 70.9804C124.65 70.9804 71.4912 124.162 71.4912 189.766C71.4912 255.371 124.65 308.552 190.223 308.552C255.797 308.552 308.955 255.371 308.955 189.766Z" fill="black" stroke="white" stroke-opacity="0.123" style="fill:black;fill-opacity:1;stroke:white;stroke-opacity:0.123;" stroke-width="1.94418" stroke-linecap="round"/>
<path d="M306.26 189.768C306.26 125.654 254.309 73.6815 190.227 73.6815C126.144 73.6815 74.1932 125.654 74.1932 189.768C74.1932 253.882 126.144 305.854 190.227 305.854C254.309 305.854 306.26 253.882 306.26 189.768Z" fill="black" stroke="white" stroke-opacity="0.123" style="fill:black;fill-opacity:1;stroke:white;stroke-opacity:0.123;" stroke-width="1.9" stroke-linecap="round"/>
<path d="M300.864 189.766C300.864 128.634 251.33 79.0784 190.226 79.0784C129.123 79.0784 79.5884 128.634 79.5884 189.766C79.5884 250.898 129.123 300.453 190.226 300.453C251.33 300.453 300.864 250.898 300.864 189.766Z" fill="black" stroke="white" stroke-opacity="0.123" style="fill:black;fill-opacity:1;stroke:white;stroke-opacity:0.123;" stroke-width="1.81164" stroke-linecap="round"/>
<path d="M298.164 189.767C298.164 130.126 249.837 81.7796 190.224 81.7796C130.612 81.7796 82.2849 130.126 82.2849 189.767C82.2849 249.408 130.612 297.755 190.224 297.755C249.837 297.755 298.164 249.408 298.164 189.767Z" fill="black" stroke="white" stroke-opacity="0.123" style="fill:black;fill-opacity:1;stroke:white;stroke-opacity:0.123;" stroke-width="1.76745" stroke-linecap="round"/>
<path d="M295.468 189.764C295.468 131.614 248.35 84.4754 190.228 84.4754C132.105 84.4754 84.9869 131.614 84.9869 189.764C84.9869 247.914 132.105 295.052 190.228 295.052C248.35 295.052 295.468 247.914 295.468 189.764Z" fill="black" stroke="white" stroke-opacity="0.123" style="fill:black;fill-opacity:1;stroke:white;stroke-opacity:0.123;" stroke-width="1.72326" stroke-linecap="round"/>
<path d="M292.767 189.765C292.767 133.106 246.857 87.1766 190.225 87.1766C133.594 87.1766 87.6835 133.106 87.6835 189.765C87.6835 246.424 133.594 292.354 190.225 292.354C246.857 292.354 292.767 246.424 292.767 189.765Z" fill="black" stroke="white" stroke-opacity="0.123" style="fill:black;fill-opacity:1;stroke:white;stroke-opacity:0.123;" stroke-width="1.67908" stroke-linecap="round"/>
<path d="M290.067 189.769C290.067 134.602 245.365 89.8816 190.223 89.8816C135.082 89.8816 90.3801 134.602 90.3801 189.769C90.3801 244.936 135.082 289.656 190.223 289.656C245.365 289.656 290.067 244.936 290.067 189.769Z" fill="black" stroke="white" stroke-opacity="0.123" style="fill:black;fill-opacity:1;stroke:white;stroke-opacity:0.123;" stroke-width="1.63487" stroke-linecap="round"/>
<path d="M287.366 189.765C287.366 136.089 243.872 92.5773 190.221 92.5773C136.57 92.5773 93.0767 136.089 93.0767 189.765C93.0767 243.441 136.57 286.952 190.221 286.952C243.872 286.952 287.366 243.441 287.366 189.765Z" fill="black" stroke="white" stroke-opacity="0.123" style="fill:black;fill-opacity:1;stroke:white;stroke-opacity:0.123;" stroke-width="1.59069" stroke-linecap="round"/>
<path d="M284.671 189.767C284.671 137.581 242.385 95.2786 190.225 95.2786C138.064 95.2786 95.7787 137.581 95.7787 189.767C95.7787 241.952 138.064 284.255 190.225 284.255C242.385 284.255 284.671 241.952 284.671 189.767Z" fill="black" stroke="white" stroke-opacity="0.123" style="fill:black;fill-opacity:1;stroke:white;stroke-opacity:0.123;" stroke-width="1.5465" stroke-linecap="round"/>
<path d="M281.97 189.768C281.97 139.074 240.893 97.9799 190.223 97.9799C139.552 97.9799 98.4753 139.074 98.4753 189.768C98.4753 240.463 139.552 281.557 190.223 281.557C240.893 281.557 281.97 240.463 281.97 189.768Z" fill="black" stroke="white" stroke-opacity="0.123" style="fill:black;fill-opacity:1;stroke:white;stroke-opacity:0.123;" stroke-width="1.50231" stroke-linecap="round"/>
<path d="M279.275 189.77C279.275 140.567 239.405 100.681 190.224 100.681C141.043 100.681 101.174 140.567 101.174 189.77C101.174 238.973 141.043 278.859 190.224 278.859C239.405 278.859 279.275 238.973 279.275 189.77Z" fill="black" stroke="white" stroke-opacity="0.123" style="fill:black;fill-opacity:1;stroke:white;stroke-opacity:0.123;" stroke-width="1.45814" stroke-linecap="round"/>
<path d="M276.574 189.766C276.574 142.054 237.913 103.377 190.222 103.377C142.532 103.377 103.87 142.054 103.87 189.766C103.87 237.478 142.532 276.156 190.222 276.156C237.913 276.156 276.574 237.478 276.574 189.766Z" fill="black" stroke="white" stroke-opacity="0.123" style="fill:black;fill-opacity:1;stroke:white;stroke-opacity:0.123;" stroke-width="1.41396" stroke-linecap="round"/>
<path d="M273.879 189.768C273.879 143.546 236.426 106.078 190.226 106.078C144.026 106.078 106.572 143.546 106.572 189.768C106.572 235.989 144.026 273.457 190.226 273.457C236.426 273.457 273.879 235.989 273.879 189.768Z" fill="black" stroke="white" stroke-opacity="0.123" style="fill:black;fill-opacity:1;stroke:white;stroke-opacity:0.123;" stroke-width="1.36977" stroke-linecap="round"/>
<path d="M268.477 189.765C268.477 146.526 233.44 111.475 190.221 111.475C147.002 111.475 111.966 146.526 111.966 189.765C111.966 233.005 147.002 268.056 190.221 268.056C233.44 268.056 268.477 233.005 268.477 189.765Z" fill="black" stroke="white" stroke-opacity="0.123" style="fill:black;fill-opacity:1;stroke:white;stroke-opacity:0.123;" stroke-width="1.2814" stroke-linecap="round"/>
<path d="M265.782 189.767C265.782 148.018 231.953 114.176 190.225 114.176C148.496 114.176 114.668 148.018 114.668 189.767C114.668 231.516 148.496 265.358 190.225 265.358C231.953 265.358 265.782 231.516 265.782 189.767Z" fill="black" stroke="white" stroke-opacity="0.123" style="fill:black;fill-opacity:1;stroke:white;stroke-opacity:0.123;" stroke-width="1.23721" stroke-linecap="round"/>
<path d="M263.081 189.769C263.081 149.511 230.461 116.877 190.223 116.877C149.984 116.877 117.364 149.511 117.364 189.769C117.364 230.026 149.984 262.66 190.223 262.66C230.461 262.66 263.081 230.026 263.081 189.769Z" fill="black" stroke="white" stroke-opacity="0.123" style="fill:black;fill-opacity:1;stroke:white;stroke-opacity:0.123;" stroke-width="1.19302" stroke-linecap="round"/>
<path d="M260.38 189.765C260.38 150.998 228.968 119.573 190.22 119.573C151.473 119.573 120.061 150.998 120.061 189.765C120.061 228.532 151.473 259.957 190.22 259.957C228.968 259.957 260.38 228.532 260.38 189.765Z" fill="black" stroke="white" stroke-opacity="0.123" style="fill:black;fill-opacity:1;stroke:white;stroke-opacity:0.123;" stroke-width="1.14884" stroke-linecap="round"/>
<path d="M257.68 189.766C257.68 152.491 227.476 122.274 190.218 122.274C152.961 122.274 122.757 152.491 122.757 189.766C122.757 227.042 152.961 257.259 190.218 257.259C227.476 257.259 257.68 227.042 257.68 189.766Z" fill="black" stroke="white" stroke-opacity="0.123" style="fill:black;fill-opacity:1;stroke:white;stroke-opacity:0.123;" stroke-width="1.10465" stroke-linecap="round"/>
<path d="M244.192 189.766C244.192 159.946 220.029 135.773 190.223 135.773C160.416 135.773 136.253 159.946 136.253 189.766C136.253 219.586 160.416 243.759 190.223 243.759C220.029 243.759 244.192 219.586 244.192 189.766Z" fill="black" style="fill:black;fill-opacity:1;"/>
<path d="M158.457 225.061C177.94 242.607 207.95 241.03 225.488 221.539C243.025 202.049 241.449 172.025 221.966 154.479C202.483 136.933 172.473 138.511 154.936 158.001C137.399 177.491 138.974 207.516 158.457 225.061Z" fill="#222F5E" style="fill:#222F5E;fill:color(display-p3 0.1333 0.1843 0.3686);fill-opacity:1;"/>
<path d="M195.769 189.769C195.769 188.294 195.183 186.88 194.141 185.838C193.099 184.796 191.686 184.21 190.212 184.21C188.739 184.21 187.325 184.796 186.283 185.838C185.241 186.88 184.656 188.294 184.656 189.769C184.656 191.243 185.241 192.657 186.283 193.699C187.325 194.742 188.739 195.328 190.212 195.328C191.686 195.328 193.099 194.742 194.141 193.699C195.183 192.657 195.769 191.243 195.769 189.769Z" fill="black" style="fill:black;fill-opacity:1;"/>
<g opacity="0.3" filter="url(#filter0_f_138_59)">
<path d="M190.971 192.413L587.726 372.249C560.478 330.151 451.784 -78.6269 411.336 -106.964L190.971 192.413Z" fill="#5D5D5D" style="fill:#5D5D5D;fill:color(display-p3 0.3647 0.3647 0.3647);fill-opacity:1;"/>
</g>
</g>
</g>
<defs>
<filter id="filter0_f_138_59" x="160.371" y="-137.564" width="457.956" height="540.413" filterUnits="userSpaceOnUse" color-interpolation-filters="sRGB">
<feFlood flood-opacity="0" result="BackgroundImageFix"/>
<feBlend mode="normal" in="SourceGraphic" in2="BackgroundImageFix" result="shape"/>
<feGaussianBlur stdDeviation="15.3" result="effect1_foregroundBlur_138_59"/>
</filter>
<clipPath id="clip0_138_59">
<rect width="380" height="380" fill="white" style="fill:white;fill-opacity:1;" transform="matrix(0 1 1 0 0 0)"/>
</clipPath>
</defs>
</svg>
