<svg width="75" height="60" viewBox="0 0 75 60" fill="none" xmlns="http://www.w3.org/2000/svg">
<g filter="url(#filter0_i_143_134)">
<rect width="75" height="60" rx="5" fill="#232323"/>
</g>
<rect x="1" y="1" width="73" height="58" rx="4" stroke="url(#paint0_linear_143_134)" stroke-width="2"/>
<g filter="url(#filter1_d_143_134)">
<rect x="4" y="4" width="67" height="52" rx="3" fill="url(#paint1_linear_143_134)"/>
</g>
<path opacity="0.8" d="M25.331 23.465C25.331 24.011 25.2053 24.4833 24.954 24.882C24.7113 25.2807 24.3473 25.5883 23.862 25.805C23.3853 26.0217 22.796 26.13 22.094 26.13C21.7473 26.13 21.4267 26.1083 21.132 26.065C20.8373 26.0303 20.56 25.974 20.3 25.896C20.0487 25.818 19.806 25.7227 19.572 25.61V24.05C19.962 24.2233 20.3823 24.3837 20.833 24.531C21.2923 24.6697 21.7387 24.739 22.172 24.739C22.5013 24.739 22.77 24.6913 22.978 24.596C23.186 24.492 23.3377 24.3533 23.433 24.18C23.537 23.998 23.589 23.79 23.589 23.556C23.589 23.296 23.524 23.075 23.394 22.893C23.2727 22.711 23.082 22.542 22.822 22.386C22.562 22.23 22.224 22.0697 21.808 21.905C21.5133 21.775 21.2317 21.6363 20.963 21.489C20.703 21.333 20.4733 21.1467 20.274 20.93C20.0833 20.7133 19.9317 20.4577 19.819 20.163C19.715 19.8683 19.663 19.5217 19.663 19.123C19.663 18.5943 19.7887 18.1393 20.04 17.758C20.2913 17.3767 20.6423 17.0863 21.093 16.887C21.5437 16.6877 22.068 16.588 22.666 16.588C23.1687 16.588 23.628 16.64 24.044 16.744C24.4687 16.848 24.8673 16.9953 25.24 17.186L24.694 18.525C24.3387 18.3603 23.9877 18.2303 23.641 18.135C23.303 18.0397 22.9607 17.992 22.614 17.992C22.3453 17.992 22.12 18.0397 21.938 18.135C21.756 18.2217 21.6173 18.3473 21.522 18.512C21.4353 18.6767 21.392 18.8673 21.392 19.084C21.392 19.3353 21.4527 19.5477 21.574 19.721C21.6953 19.8943 21.886 20.059 22.146 20.215C22.406 20.3623 22.744 20.5357 23.16 20.735C23.6193 20.943 24.0093 21.164 24.33 21.398C24.6593 21.632 24.9063 21.9137 25.071 22.243C25.2443 22.5723 25.331 22.9797 25.331 23.465ZM30.2114 26H28.4564V18.122H26.0384V16.718H32.6164V18.122H30.2114V26ZM38.4486 26L37.7336 23.543H34.5616L33.8466 26H31.9746L35.0946 16.679H37.1876L40.3206 26H38.4486ZM36.5766 19.721C36.5419 19.5823 36.4943 19.4177 36.4336 19.227C36.3816 19.0277 36.3296 18.824 36.2776 18.616C36.2343 18.408 36.1909 18.213 36.1476 18.031C36.1129 18.239 36.0696 18.447 36.0176 18.655C35.9656 18.8543 35.9136 19.045 35.8616 19.227C35.8183 19.409 35.7749 19.5737 35.7316 19.721L35.0036 22.113H37.3176L36.5766 19.721ZM43.9944 16.718C44.7658 16.718 45.4028 16.8177 45.9054 17.017C46.4081 17.2163 46.7808 17.5197 47.0234 17.927C47.2661 18.3257 47.3874 18.8327 47.3874 19.448C47.3874 19.8987 47.3138 20.2843 47.1664 20.605C47.0191 20.9257 46.8198 21.1943 46.5684 21.411C46.3258 21.619 46.0614 21.788 45.7754 21.918L48.2714 26H46.2954L44.2804 22.334H43.1494V26H41.4074V16.718H43.9944ZM43.9164 18.109H43.1494V20.969H43.9424C44.3151 20.969 44.6228 20.9127 44.8654 20.8C45.1168 20.6873 45.3031 20.5227 45.4244 20.306C45.5544 20.0893 45.6194 19.8207 45.6194 19.5C45.6194 19.162 45.5588 18.8933 45.4374 18.694C45.3161 18.486 45.1298 18.3387 44.8784 18.252C44.6271 18.1567 44.3064 18.109 43.9164 18.109ZM52.6821 26H50.9271V18.122H48.5091V16.718H55.0871V18.122H52.6821V26ZM25.331 41.465C25.331 42.011 25.2053 42.4833 24.954 42.882C24.7113 43.2807 24.3473 43.5883 23.862 43.805C23.3853 44.0217 22.796 44.13 22.094 44.13C21.7473 44.13 21.4267 44.1083 21.132 44.065C20.8373 44.0303 20.56 43.974 20.3 43.896C20.0487 43.818 19.806 43.7227 19.572 43.61V42.05C19.962 42.2233 20.3823 42.3837 20.833 42.531C21.2923 42.6697 21.7387 42.739 22.172 42.739C22.5013 42.739 22.77 42.6913 22.978 42.596C23.186 42.492 23.3377 42.3533 23.433 42.18C23.537 41.998 23.589 41.79 23.589 41.556C23.589 41.296 23.524 41.075 23.394 40.893C23.2727 40.711 23.082 40.542 22.822 40.386C22.562 40.23 22.224 40.0697 21.808 39.905C21.5133 39.775 21.2317 39.6363 20.963 39.489C20.703 39.333 20.4733 39.1467 20.274 38.93C20.0833 38.7133 19.9317 38.4577 19.819 38.163C19.715 37.8683 19.663 37.5217 19.663 37.123C19.663 36.5943 19.7887 36.1393 20.04 35.758C20.2913 35.3767 20.6423 35.0863 21.093 34.887C21.5437 34.6877 22.068 34.588 22.666 34.588C23.1687 34.588 23.628 34.64 24.044 34.744C24.4687 34.848 24.8673 34.9953 25.24 35.186L24.694 36.525C24.3387 36.3603 23.9877 36.2303 23.641 36.135C23.303 36.0397 22.9607 35.992 22.614 35.992C22.3453 35.992 22.12 36.0397 21.938 36.135C21.756 36.2217 21.6173 36.3473 21.522 36.512C21.4353 36.6767 21.392 36.8673 21.392 37.084C21.392 37.3353 21.4527 37.5477 21.574 37.721C21.6953 37.8943 21.886 38.059 22.146 38.215C22.406 38.3623 22.744 38.5357 23.16 38.735C23.6193 38.943 24.0093 39.164 24.33 39.398C24.6593 39.632 24.9063 39.9137 25.071 40.243C25.2443 40.5723 25.331 40.9797 25.331 41.465ZM30.2114 44H28.4564V36.122H26.0384V34.718H32.6164V36.122H30.2114V44ZM41.5667 39.346C41.5667 40.0653 41.4843 40.7197 41.3197 41.309C41.155 41.8897 40.8993 42.3923 40.5527 42.817C40.2147 43.2417 39.7857 43.5667 39.2657 43.792C38.7457 44.0173 38.1347 44.13 37.4327 44.13C36.722 44.13 36.1067 44.0173 35.5867 43.792C35.0667 43.558 34.6377 43.233 34.2997 42.817C33.9617 42.3923 33.706 41.8853 33.5327 41.296C33.368 40.7067 33.2857 40.0523 33.2857 39.333C33.2857 38.371 33.433 37.5347 33.7277 36.824C34.031 36.1133 34.4903 35.563 35.1057 35.173C35.721 34.7743 36.501 34.575 37.4457 34.575C38.3817 34.575 39.153 34.7743 39.7597 35.173C40.3663 35.563 40.817 36.1177 41.1117 36.837C41.415 37.5477 41.5667 38.384 41.5667 39.346ZM35.1317 39.346C35.1317 40.048 35.2097 40.6503 35.3657 41.153C35.5217 41.6557 35.7687 42.0413 36.1067 42.31C36.4533 42.5787 36.8953 42.713 37.4327 42.713C37.97 42.713 38.4077 42.5787 38.7457 42.31C39.0837 42.0413 39.3307 41.6557 39.4867 41.153C39.6427 40.6503 39.7207 40.048 39.7207 39.346C39.7207 38.2973 39.5387 37.474 39.1747 36.876C38.8193 36.278 38.2387 35.979 37.4327 35.979C36.8953 35.979 36.4533 36.1133 36.1067 36.382C35.7687 36.6507 35.5217 37.0363 35.3657 37.539C35.2097 38.0417 35.1317 38.644 35.1317 39.346ZM46.0405 34.718C47.1672 34.718 47.9948 34.9693 48.5235 35.472C49.0522 35.9747 49.3165 36.668 49.3165 37.552C49.3165 37.9507 49.2602 38.332 49.1475 38.696C49.0348 39.0513 48.8442 39.372 48.5755 39.658C48.3155 39.944 47.9688 40.1693 47.5355 40.334C47.1022 40.4987 46.5692 40.581 45.9365 40.581H45.1045V44H43.3625V34.718H46.0405ZM45.9755 36.096H45.1045V39.203H45.7545C46.1358 39.203 46.4608 39.151 46.7295 39.047C46.9982 38.9343 47.2018 38.761 47.3405 38.527C47.4878 38.293 47.5615 37.9897 47.5615 37.617C47.5615 37.1057 47.4315 36.7243 47.1715 36.473C46.9115 36.2217 46.5128 36.096 45.9755 36.096Z" fill="white"/>
<defs>
<filter id="filter0_i_143_134" x="0" y="0" width="77" height="62" filterUnits="userSpaceOnUse" color-interpolation-filters="sRGB">
<feFlood flood-opacity="0" result="BackgroundImageFix"/>
<feBlend mode="normal" in="SourceGraphic" in2="BackgroundImageFix" result="shape"/>
<feColorMatrix in="SourceAlpha" type="matrix" values="0 0 0 0 0 0 0 0 0 0 0 0 0 0 0 0 0 0 127 0" result="hardAlpha"/>
<feOffset dx="3" dy="3"/>
<feGaussianBlur stdDeviation="1"/>
<feComposite in2="hardAlpha" operator="arithmetic" k2="-1" k3="1"/>
<feColorMatrix type="matrix" values="0 0 0 0 0 0 0 0 0 0 0 0 0 0 0 0 0 0 0.5 0"/>
<feBlend mode="normal" in2="shape" result="effect1_innerShadow_143_134"/>
</filter>
<filter id="filter1_d_143_134" x="3" y="4" width="69" height="54" filterUnits="userSpaceOnUse" color-interpolation-filters="sRGB">
<feFlood flood-opacity="0" result="BackgroundImageFix"/>
<feColorMatrix in="SourceAlpha" type="matrix" values="0 0 0 0 0 0 0 0 0 0 0 0 0 0 0 0 0 0 127 0" result="hardAlpha"/>
<feOffset dy="1"/>
<feGaussianBlur stdDeviation="0.5"/>
<feComposite in2="hardAlpha" operator="out"/>
<feColorMatrix type="matrix" values="0 0 0 0 0 0 0 0 0 0 0 0 0 0 0 0 0 0 0.5 0"/>
<feBlend mode="normal" in2="BackgroundImageFix" result="effect1_dropShadow_143_134"/>
<feBlend mode="normal" in="SourceGraphic" in2="effect1_dropShadow_143_134" result="shape"/>
</filter>
<linearGradient id="paint0_linear_143_134" x1="109.506" y1="-48.8571" x2="15.2071" y2="52.3925" gradientUnits="userSpaceOnUse">
<stop stop-color="white"/>
<stop offset="1" stop-color="#424242"/>
</linearGradient>
<linearGradient id="paint1_linear_143_134" x1="59.6989" y1="-5.1134" x2="34.9421" y2="46.6397" gradientUnits="userSpaceOnUse">
<stop stop-color="#636363"/>
<stop offset="1" stop-color="#5A5A5A"/>
</linearGradient>
</defs>
</svg>
